<svg width="90" height="95" viewBox="0 0 90 95" fill="none" xmlns="http://www.w3.org/2000/svg">
<g filter="url(#filter0_dd_43_614)">
<circle cx="45" cy="46" r="41" fill="#A0153E"/>
</g>
<g clip-path="url(#clip0_43_614)">
<g filter="url(#filter1_i_43_614)">
<path fill-rule="evenodd" clip-rule="evenodd" d="M27.0625 39.5938C27.0625 33.2252 32.2252 28.0625 38.5938 28.0625C44.9623 28.0625 50.125 33.2252 50.125 39.5938C50.125 45.9623 44.9623 51.125 38.5938 51.125C32.2252 51.125 27.0625 45.9623 27.0625 39.5938Z" fill="#00224D"/>
<path fill-rule="evenodd" clip-rule="evenodd" d="M26.143 55.4795C29.301 54.1088 33.4444 53.6875 38.5937 53.6875C43.7475 53.6875 47.8939 54.1095 51.053 55.4833C54.4942 56.9795 56.5857 59.5282 57.6819 63.1267C58.1957 64.8134 56.9288 66.5 55.183 66.5H22.0094C20.2614 66.5 18.9919 64.8108 19.5072 63.1211C20.6049 59.5221 22.6996 56.9742 26.143 55.4795Z" fill="#00224D"/>
<path d="M62.9375 22.9375C62.9375 21.5223 61.7903 20.375 60.375 20.375C58.9597 20.375 57.8125 21.5223 57.8125 22.9375V28.0625H52.6875C51.2722 28.0625 50.125 29.2098 50.125 30.625C50.125 32.0402 51.2722 33.1875 52.6875 33.1875H57.8125V38.3125C57.8125 39.7277 58.9597 40.875 60.375 40.875C61.7903 40.875 62.9375 39.7277 62.9375 38.3125V33.1875H68.0625C69.4778 33.1875 70.625 32.0402 70.625 30.625C70.625 29.2098 69.4778 28.0625 68.0625 28.0625H62.9375V22.9375Z" fill="#00224D"/>
</g>
</g>
<defs>
<filter id="filter0_dd_43_614" x="0" y="0" width="90" height="95" filterUnits="userSpaceOnUse" color-interpolation-filters="sRGB">
<feFlood flood-opacity="0" result="BackgroundImageFix"/>
<feColorMatrix in="SourceAlpha" type="matrix" values="0 0 0 0 0 0 0 0 0 0 0 0 0 0 0 0 0 0 127 0" result="hardAlpha"/>
<feOffset dy="4"/>
<feGaussianBlur stdDeviation="2"/>
<feComposite in2="hardAlpha" operator="out"/>
<feColorMatrix type="matrix" values="0 0 0 0 0 0 0 0 0 0 0 0 0 0 0 0 0 0 0.25 0"/>
<feBlend mode="normal" in2="BackgroundImageFix" result="effect1_dropShadow_43_614"/>
<feColorMatrix in="SourceAlpha" type="matrix" values="0 0 0 0 0 0 0 0 0 0 0 0 0 0 0 0 0 0 127 0" result="hardAlpha"/>
<feOffset dy="-1"/>
<feGaussianBlur stdDeviation="2"/>
<feComposite in2="hardAlpha" operator="out"/>
<feColorMatrix type="matrix" values="0 0 0 0 0 0 0 0 0 0 0 0 0 0 0 0 0 0 0.25 0"/>
<feBlend mode="normal" in2="effect1_dropShadow_43_614" result="effect2_dropShadow_43_614"/>
<feBlend mode="normal" in="SourceGraphic" in2="effect2_dropShadow_43_614" result="shape"/>
</filter>
<filter id="filter1_i_43_614" x="19.3914" y="20.375" width="51.2336" height="50.125" filterUnits="userSpaceOnUse" color-interpolation-filters="sRGB">
<feFlood flood-opacity="0" result="BackgroundImageFix"/>
<feBlend mode="normal" in="SourceGraphic" in2="BackgroundImageFix" result="shape"/>
<feColorMatrix in="SourceAlpha" type="matrix" values="0 0 0 0 0 0 0 0 0 0 0 0 0 0 0 0 0 0 127 0" result="hardAlpha"/>
<feOffset dy="4"/>
<feGaussianBlur stdDeviation="2"/>
<feComposite in2="hardAlpha" operator="arithmetic" k2="-1" k3="1"/>
<feColorMatrix type="matrix" values="0 0 0 0 0 0 0 0 0 0 0 0 0 0 0 0 0 0 0.5 0"/>
<feBlend mode="normal" in2="shape" result="effect1_innerShadow_43_614"/>
</filter>
<clipPath id="clip0_43_614">
<rect width="61.5" height="61.5" fill="white" transform="translate(14.25 15.25)"/>
</clipPath>
</defs>
</svg>
