<svg width="215" height="221" viewBox="0 0 215 221" fill="none" xmlns="http://www.w3.org/2000/svg">
<g filter="url(#filter0_i_520_455)">
<line x1="0.5" y1="0.5" x2="67.5" y2="0.5" stroke="black" stroke-linecap="round"/>
<line x1="0.5" y1="0.5" x2="0.499997" y2="67.5" stroke="black" stroke-linecap="round"/>
<line x1="214.5" y1="220.5" x2="147.5" y2="220.5" stroke="black" stroke-linecap="round"/>
<line x1="214.5" y1="220.5" x2="214.5" y2="153.5" stroke="black" stroke-linecap="round"/>
<line x1="0.5" y1="0.5" x2="67.5" y2="0.5" stroke="black" stroke-linecap="round"/>
<line x1="0.5" y1="0.5" x2="0.499997" y2="67.5" stroke="black" stroke-linecap="round"/>
<line x1="214.5" y1="220.5" x2="147.5" y2="220.5" stroke="black" stroke-linecap="round"/>
<line x1="214.5" y1="220.5" x2="214.5" y2="153.5" stroke="black" stroke-linecap="round"/>
<line x1="214.5" y1="1.5" x2="214.5" y2="68.5" stroke="black" stroke-linecap="round"/>
<line x1="214.5" y1="1.5" x2="147.5" y2="1.5" stroke="black" stroke-linecap="round"/>
<line x1="0.5" y1="220.5" x2="0.500001" y2="153.5" stroke="black" stroke-linecap="round"/>
<line x1="0.5" y1="220.5" x2="67.5" y2="220.5" stroke="black" stroke-linecap="round"/>
</g>
<g clip-path="url(#clip0_520_455)">
<g filter="url(#filter1_i_520_455)">
<path fill-rule="evenodd" clip-rule="evenodd" d="M157.226 23.1667C160.641 23.1667 164.068 23.1174 167.477 23.35C170.308 23.5432 173.14 23.9681 175.938 25.1268C182.248 27.7404 187.26 32.7532 189.874 39.0626C191.033 41.8602 191.458 44.6919 191.651 47.523C191.883 50.9325 191.834 54.3593 191.834 57.7746C191.834 61.5397 191.834 64.7884 191.651 67.4772C191.458 70.3082 191.033 73.14 189.874 75.9375C187.26 82.247 182.248 87.2598 175.938 89.8733C173.14 91.0321 170.308 91.457 167.477 91.6501C164.068 91.883 160.641 91.8332 157.226 91.8332C153.461 91.8332 150.212 91.8332 147.523 91.6501C144.692 91.457 141.861 91.0321 139.063 89.8733C132.754 87.2598 127.741 82.247 125.127 75.9375C123.969 73.14 123.544 70.3082 123.351 67.4772C123.167 64.7884 123.167 61.5397 123.167 57.7746C123.167 54.3593 123.118 50.9325 123.351 47.523C123.544 44.6919 123.969 41.8602 125.127 39.0626C127.741 32.7532 132.754 27.7404 139.063 25.1268C141.861 23.9681 144.692 23.5432 147.523 23.35C150.212 23.1666 153.461 23.1666 157.226 23.1667Z" fill="black"/>
<path fill-rule="evenodd" clip-rule="evenodd" d="M54.7749 23.1667C58.54 23.1666 61.7887 23.1666 64.4775 23.35C67.3084 23.5432 70.1403 23.9681 72.9377 25.1268C79.2473 27.7404 84.2601 32.7532 86.8736 39.0626C88.0324 41.8602 88.4573 44.6919 88.6504 47.523C88.8833 50.9325 88.8335 54.3593 88.8335 57.7746C88.8335 61.5397 88.8335 64.7884 88.6504 67.4772C88.4573 70.3082 88.0324 73.14 86.8736 75.9375C84.2601 82.247 79.2473 87.2598 72.9377 89.8733C70.1403 91.0321 67.3084 91.457 64.4775 91.6501C61.7887 91.8332 58.54 91.8332 54.7749 91.8332C51.3595 91.8332 47.9328 91.883 44.5232 91.6501C41.6922 91.457 38.8604 91.0321 36.0629 89.8733C29.7534 87.2598 24.7406 82.247 22.1271 75.9375C20.9683 73.14 20.5434 70.3082 20.3502 67.4772C20.1668 64.7884 20.1669 61.5397 20.167 57.7746C20.167 54.3593 20.1176 50.9325 20.3502 47.523C20.5434 44.6919 20.9683 41.8602 22.1271 39.0626C24.7406 32.7532 29.7534 27.7404 36.0629 25.1268C38.8604 23.9681 41.6922 23.5432 44.5232 23.35C47.9328 23.1174 51.3595 23.1667 54.7749 23.1667Z" fill="black"/>
<path fill-rule="evenodd" clip-rule="evenodd" d="M54.2258 126.167C57.6412 126.167 61.0678 126.118 64.4775 126.35C67.3084 126.543 70.1403 126.968 72.9377 128.127C79.2473 130.741 84.2601 135.753 86.8736 142.063C88.0324 144.86 88.4573 147.692 88.6504 150.523C88.8335 153.212 88.8335 156.461 88.8335 160.225C88.8335 163.641 88.8833 167.068 88.6504 170.477C88.4573 173.308 88.0324 176.14 86.8736 178.938C84.2601 185.247 79.2473 190.26 72.9377 192.874C70.1403 194.032 67.3084 194.457 64.4775 194.65C61.7887 194.833 58.54 194.833 54.7749 194.833C51.3595 194.833 47.9328 194.883 44.5232 194.65C41.6922 194.457 38.8604 194.032 36.0629 192.874C29.7534 190.26 24.7406 185.247 22.1271 178.938C20.9683 176.14 20.5434 173.308 20.3502 170.477C20.1176 167.068 20.167 163.641 20.167 160.225C20.1669 156.461 20.1668 153.212 20.3502 150.523C20.5434 147.692 20.9683 144.86 22.1271 142.063C24.7406 135.753 29.7534 130.741 36.0629 128.127C38.8604 126.968 41.6922 126.543 44.5232 126.35C47.212 126.167 50.4607 126.167 54.2258 126.167Z" fill="black"/>
<path fill-rule="evenodd" clip-rule="evenodd" d="M106 23.1667C110.74 23.1667 114.583 27.0097 114.583 31.7501V57.5001C114.583 62.2405 110.74 66.0834 106 66.0834C101.259 66.0834 97.4165 62.2405 97.4165 57.5001V31.7501C97.4165 27.0097 101.259 23.1667 106 23.1667Z" fill="black"/>
<path fill-rule="evenodd" clip-rule="evenodd" d="M166.083 160.5C166.083 165.241 162.24 169.083 157.5 169.083H131.75C127.009 169.083 123.167 165.241 123.167 160.5C123.167 155.76 127.009 151.917 131.75 151.917H157.5C162.24 151.917 166.083 155.76 166.083 160.5Z" fill="black"/>
<path fill-rule="evenodd" clip-rule="evenodd" d="M191.833 134.75C191.833 139.491 187.99 143.333 183.25 143.333H157.5C152.759 143.333 148.917 139.491 148.917 134.75C148.917 130.01 152.759 126.167 157.5 126.167H183.25C187.99 126.167 191.833 130.01 191.833 134.75Z" fill="black"/>
<path fill-rule="evenodd" clip-rule="evenodd" d="M88.8332 109C88.8332 113.741 84.9902 117.583 80.2498 117.583H28.7498C24.0094 117.583 20.1665 113.741 20.1665 109C20.1665 104.26 24.0094 100.417 28.7498 100.417H80.2498C84.9902 100.417 88.8332 104.26 88.8332 109Z" fill="black"/>
<path fill-rule="evenodd" clip-rule="evenodd" d="M191.833 109C191.833 113.741 187.99 117.583 183.25 117.583H114.583C105.102 117.583 97.4165 109.898 97.4165 100.417V83.2501C97.4165 78.5096 101.259 74.6667 106 74.6667C110.74 74.6667 114.583 78.5096 114.583 83.2501V100.417H183.25C187.99 100.417 191.833 104.26 191.833 109Z" fill="black"/>
<path fill-rule="evenodd" clip-rule="evenodd" d="M118.875 186.25C118.875 190.991 122.718 194.833 127.458 194.833H174.667C184.148 194.833 191.833 187.148 191.833 177.667V160.5C191.833 155.76 187.991 151.917 183.25 151.917C178.509 151.917 174.667 155.76 174.667 160.5V177.667H127.458C122.718 177.667 118.875 181.51 118.875 186.25Z" fill="black"/>
<path fill-rule="evenodd" clip-rule="evenodd" d="M106 194.833C101.259 194.833 97.4165 190.991 97.4165 186.25V143.333C97.4165 133.852 105.102 126.167 114.583 126.167H131.75C136.49 126.167 140.333 130.01 140.333 134.75C140.333 139.491 136.49 143.333 131.75 143.333H114.583V186.25C114.583 190.991 110.74 194.833 106 194.833Z" fill="black"/>
</g>
</g>
<defs>
<filter id="filter0_i_520_455" x="0" y="0" width="215" height="225" filterUnits="userSpaceOnUse" color-interpolation-filters="sRGB">
<feFlood flood-opacity="0" result="BackgroundImageFix"/>
<feBlend mode="normal" in="SourceGraphic" in2="BackgroundImageFix" result="shape"/>
<feColorMatrix in="SourceAlpha" type="matrix" values="0 0 0 0 0 0 0 0 0 0 0 0 0 0 0 0 0 0 127 0" result="hardAlpha"/>
<feOffset dy="4"/>
<feGaussianBlur stdDeviation="2"/>
<feComposite in2="hardAlpha" operator="arithmetic" k2="-1" k3="1"/>
<feColorMatrix type="matrix" values="0 0 0 0 0 0 0 0 0 0 0 0 0 0 0 0 0 0 0.25 0"/>
<feBlend mode="normal" in2="shape" result="effect1_innerShadow_520_455"/>
</filter>
<filter id="filter1_i_520_455" x="20.1626" y="23.1624" width="171.676" height="175.676" filterUnits="userSpaceOnUse" color-interpolation-filters="sRGB">
<feFlood flood-opacity="0" result="BackgroundImageFix"/>
<feBlend mode="normal" in="SourceGraphic" in2="BackgroundImageFix" result="shape"/>
<feColorMatrix in="SourceAlpha" type="matrix" values="0 0 0 0 0 0 0 0 0 0 0 0 0 0 0 0 0 0 127 0" result="hardAlpha"/>
<feOffset dy="4"/>
<feGaussianBlur stdDeviation="2"/>
<feComposite in2="hardAlpha" operator="arithmetic" k2="-1" k3="1"/>
<feColorMatrix type="matrix" values="0 0 0 0 0 0 0 0 0 0 0 0 0 0 0 0 0 0 0.25 0"/>
<feBlend mode="normal" in2="shape" result="effect1_innerShadow_520_455"/>
</filter>
<clipPath id="clip0_520_455">
<rect width="206" height="206" fill="white" transform="translate(3 6)"/>
</clipPath>
</defs>
</svg>
